<svg width="321" height="321" viewBox="0 0 321 321" fill="none" xmlns="http://www.w3.org/2000/svg">
<path d="M150.158 278.866C149.005 292.05 147.278 311.784 146.547 320.143C156.003 320.97 165.34 320.957 174.482 320.166C173.669 310.895 171.625 287.528 170.481 274.452C163.959 275.035 157.295 275.054 150.543 274.463C150.425 275.818 150.296 277.295 150.158 278.866Z" fill="#FFB52F"/>
<path d="M170.549 1.08677C162.449 0.572848 154.446 0.673657 146.588 1.34975C147.527 12.0824 149.914 39.374 150.888 50.4984C157.189 49.963 163.621 49.9653 170.135 50.5351C171.081 39.7157 173.488 12.201 174.435 1.38007C173.137 1.26653 171.842 1.16882 170.549 1.08677Z" fill="#FFB52F"/>
<path d="M210.599 268.231C216.192 280.226 224.563 298.179 228.11 305.784C236.713 301.772 244.792 297.093 252.313 291.836C246.975 284.214 233.52 264.999 225.992 254.247C220.635 258.014 214.873 261.362 208.731 264.226C209.305 265.458 209.932 266.802 210.599 268.231Z" fill="#FFB52F"/>
<path d="M89.3677 17.4724C82.0963 21.0771 75.216 25.1659 68.7484 29.6806C74.9279 38.5059 90.6415 60.9472 97.0466 70.0947C102.236 66.4804 107.807 63.2662 113.733 60.503C109.143 50.6598 97.4706 25.6278 92.8801 15.7832C91.6994 16.3338 90.5286 16.8969 89.3677 17.4724Z" fill="#FFB52F"/>
<path d="M257.613 228.801C268.454 236.392 284.681 247.755 291.554 252.567C296.999 244.792 301.656 236.7 305.541 228.386C297.107 224.455 275.848 214.542 263.952 208.994C261.196 214.934 257.88 220.715 253.993 226.266C255.106 227.046 256.321 227.897 257.613 228.801Z" fill="#FFB52F"/>
<path d="M27.2443 72.2532C22.7495 79.0107 18.8353 85.9919 15.4916 93.1356C25.2558 97.6887 50.0849 109.267 60.2055 113.986C62.8924 108.261 66.1105 102.692 69.8608 97.3361C60.9641 91.1066 38.3394 75.2645 29.4415 69.0342C28.6943 70.1013 27.9619 71.1744 27.2443 72.2532Z" fill="#FFB52F"/>
<path d="M278.603 171.141C291.788 172.295 311.522 174.021 319.881 174.753C320.708 165.296 320.695 155.96 319.904 146.818C310.633 147.63 287.266 149.674 274.19 150.818C274.773 157.341 274.792 164.005 274.201 170.756C275.555 170.875 277.033 171.004 278.603 171.141Z" fill="#FFB52F"/>
<path d="M0.824442 150.751C0.310519 158.85 0.411328 166.853 1.08742 174.712C11.82 173.773 39.1117 171.385 50.2361 170.412C49.7006 164.111 49.7029 157.679 50.2728 151.165C39.4534 150.218 11.9387 147.811 1.11774 146.865C1.0042 148.162 0.906488 149.458 0.824442 150.751Z" fill="#FFB52F"/>
<path d="M267.969 110.701C279.964 105.108 297.917 96.7361 305.522 93.1898C301.51 84.5865 296.831 76.5077 291.574 68.9861C283.952 74.325 264.737 87.7791 253.985 95.3076C257.751 100.665 261.1 106.426 263.964 112.569C265.196 111.994 266.54 111.367 267.969 110.701Z" fill="#FFB52F"/>
<path d="M17.21 231.932C20.8147 239.203 24.9035 246.084 29.4183 252.551C38.2435 246.372 60.6849 230.658 69.8323 224.253C66.218 219.064 63.0039 213.492 60.2406 207.566C50.3974 212.156 25.3654 223.829 15.5208 228.419C16.0714 229.6 16.6345 230.771 17.21 231.932Z" fill="#FFB52F"/>
<path d="M228.539 63.6868C236.13 52.8455 247.492 36.6188 252.305 29.7452C244.529 24.3004 236.437 19.6436 228.124 15.7581C224.192 24.1928 214.279 45.4517 208.732 57.3477C214.672 60.1038 220.453 63.4193 226.004 67.307C226.784 66.1933 227.635 64.9782 228.539 63.6868Z" fill="#FFB52F"/>
<path d="M71.9909 294.055C78.7483 298.55 85.7295 302.464 92.8732 305.808C97.4263 296.044 109.004 271.215 113.724 261.094C107.999 258.407 102.43 255.189 97.0737 251.439C90.8442 260.335 75.0022 282.96 68.7718 291.858C69.839 292.605 70.9121 293.338 71.9909 294.055Z" fill="#FFB52F"/>
<path d="M160.491 250.602C209.626 250.602 249.458 210.77 249.458 161.635C249.458 112.5 209.626 72.6683 160.491 72.6683C111.356 72.6683 71.5244 112.5 71.5244 161.635C71.5244 210.77 111.356 250.602 160.491 250.602Z" fill="#FFB52F"/>
</svg>
